<svg xmlns="http://www.w3.org/2000/svg" width="28" height="616" viewBox="0 0 28 616"><g fill="none" fill-rule="evenodd"><rect width="28" height="28" rx="14"/><path fill="#FFF" d="M12.052 19.676c-.408 1.608.192 1.938 1.34.744l5.045-5.258c1.143-1.19.746-2.366-.895-2.618l-2.31-.355c-.14-.022-.227-.15-.19-.29l.906-3.576c.408-1.608-.192-1.938-1.34-.744l-5.045 5.258c-1.143 1.19-.746 2.366.895 2.618l2.31.355c.14.022.227.15.19.29l-.906 3.576z"/><g transform="translate(0 28)"><rect width="28" height="28" rx="14"/><g fill="#FFF"><path d="M13.986 19.117c-.023.905-.488 1.207-1.33.465-1.25-1.1-2.625-2.395-3.085-2.79-.46-.397-1.195-.466-2.234-.466-1.038 0-1.32-.465-1.32-.93 0-.466-.01-1.372-.01-1.5 0-.043.003-.065.01-.098.014-.072-.042-.73 0-1.194.062-.68.282-.93 1.32-.93 1.04 0 1.775-.07 2.235-.465.46-.397 1.836-1.69 3.086-2.792.842-.742 1.307-.44 1.33.465.03 1.205 0 2.888 0 5.012 0 2.122.03 4.017 0 5.222z"/><path fill-rule="nonzero" d="M15.88 12.12c.075.072.215.248.36.502.242.423.385.887.385 1.378 0 .49-.143.955-.385 1.378-.145.254-.285.43-.36.503-.34.343-.34.897 0 1.24.343.34.897.34 1.24 0 .175-.178.41-.47.64-.873.383-.67.615-1.425.615-2.247 0-.822-.232-1.576-.615-2.247-.23-.402-.465-.695-.64-.872-.343-.34-.897-.34-1.24 0-.34.343-.34.897 0 1.24zm3-2c.14.136.384.463.64.975.407.814.667 1.79.705 2.934-.038 1.085-.298 2.06-.705 2.875-.256.512-.5.84-.64.976-.34.343-.34.897 0 1.24.343.34.897.34 1.24 0 .262-.265.62-.74.965-1.433.517-1.033.843-2.255.89-3.658-.047-1.462-.373-2.684-.89-3.717-.346-.692-.703-1.168-.966-1.432-.343-.34-.897-.34-1.24 0-.34.343-.34.897 0 1.24z"/></g></g><g transform="translate(0 56)"><rect width="28" height="28" rx="14"/><path fill="#FFF" d="M9 9h10c.552 0 1 .448 1 1s-.448 1-1 1H9c-.552 0-1-.448-1-1s.448-1 1-1zm0 4h10c.552 0 1 .448 1 1s-.448 1-1 1H9c-.552 0-1-.448-1-1s.448-1 1-1zm0 4h6c.552 0 1 .448 1 1s-.448 1-1 1H9c-.552 0-1-.448-1-1s.448-1 1-1z"/></g><g transform="translate(0 84)"><rect width="28" height="28" rx="14"/><path fill="#FFF" d="M12.568 18.665l-3.663-3.758c-1.207-1.237-1.207-3.242 0-4.48 1.206-1.236 3.16-1.236 4.367 0 .337.346.58.75.728 1.182.15-.432.39-.837.728-1.182 1.206-1.237 3.16-1.237 4.367 0 1.207 1.237 1.207 3.242 0 4.48l-3.663 3.757c-.77.79-2.037.807-2.828.035-.012-.01-.024-.023-.036-.035z"/></g><g transform="translate(0 112)"><rect width="28" height="28" rx="14"/><path fill="#FFF" d="M10 10h5v2h-4.5c-.276 0-.5.224-.5.5v5c0 .276.224.5.5.5H15v2h-5c-1.105 0-2-.895-2-2v-6c0-1.105.895-2 2-2zm5 5V7l6 4-6 4z"/></g><g transform="translate(0 140)"><rect width="28" height="28" rx="14"/><path fill="#FFF" d="M15 18l-2.745 2.708c-.278.29-1.177.588-1.255-.208V18H9c-.5 0-1-.5-1-1v-7c0-.5.5-1 1-1h10c.5 0 1 .5 1 1v7c0 .5-.5 1-1 1h-4z"/></g><g transform="translate(0 168)"><rect width="28" height="28" rx="14"/><path fill="#FFF" d="M22 13.134c0 .94-.15 1.8-.45 2.58-.3.778-.726 1.39-1.274 1.833-.55.444-1.186.666-1.91.666-.484 0-.912-.116-1.285-.348-.37-.23-.64-.536-.802-.915h-.157c-.704.842-1.602 1.263-2.693 1.263-1.156 0-2.068-.348-2.734-1.042-.666-.694-1-1.645-1-2.852 0-1.377.438-2.486 1.314-3.327.875-.84 2.018-1.262 3.43-1.262.56 0 1.18.054 1.856.162.676.108 1.233.236 1.67.386l-.225 4.786c0 .907.248 1.36.745 1.36.418 0 .75-.305 1-.915.247-.61.37-1.408.37-2.393 0-1.05-.218-1.978-.655-2.784-.438-.805-1.053-1.42-1.847-1.844-.793-.424-1.7-.636-2.718-.636-1.32 0-2.466.27-3.44.812-.972.54-1.72 1.323-2.238 2.344-.52 1.02-.78 2.2-.78 3.537 0 1.8.483 3.182 1.446 4.144.964.963 2.36 1.444 4.19 1.444.69 0 1.452-.076 2.282-.23.83-.152 1.646-.376 2.45-.67v1.88c-1.4.593-2.95.89-4.655.89-2.482 0-4.417-.652-5.805-1.957C6.694 18.738 6 16.923 6 14.603c0-1.613.354-3.076 1.063-4.39.71-1.315 1.718-2.346 3.028-3.093C11.4 6.373 12.91 6 14.613 6c1.437 0 2.72.294 3.85.88 1.13.588 2.003 1.423 2.617 2.506.613 1.083.92 2.332.92 3.748zm-10.033 1.223c0 1.377.562 2.065 1.685 2.065.588 0 1.035-.207 1.342-.62.307-.416.494-1.09.56-2.022l.126-2.163c-.333-.072-.708-.108-1.126-.108-.817 0-1.452.254-1.906.763-.454.51-.68 1.203-.68 2.084z"/></g><g transform="translate(0 196)"><rect width="28" height="28" rx="14"/><path fill="#FFF" d="M8.56 16.865c.118-.347.428-.843.688-1.104l5.997-6.005 2.97 3.045-5.966 5.966c-.262.26-.758.568-1.104.683L7.25 20.747l1.31-3.883zm7.303-7.718l2.086-2.09c.258-.258.68-.25.93.008L20.92 9.16c.255.26.248.69-.01.947l-2.042 2.042-3.003-3.003z"/></g><g transform="translate(0 224)"><rect width="28" height="28" rx="14"/><path fill="#FFF" d="M15 13V9c0-.552-.448-1-1-1s-1 .448-1 1v4H9c-.552 0-1 .448-1 1s.448 1 1 1h4v4c0 .552.448 1 1 1s1-.448 1-1v-4h4c.552 0 1-.448 1-1s-.448-1-1-1h-4z"/></g><g transform="translate(0 252)"><rect width="28" height="28" rx="14"/><path fill="#FFF" d="M8 11l6 2.4 6-2.4v7.5c0 .276-.23.5-.5.5h-11c-.276 0-.5-.23-.5-.5V11zm.75-3h10.5l-.75 1.5L14 11 9.5 9.5 8.75 8z"/></g><g transform="translate(0 280)"><rect width="28" height="28" rx="14"/><path fill="#FFF" d="M17.834 10h2.04c.64 0 1.198.403 1.118 1.143v6.47c0 .74-.56 1.387-1.2 1.387H8.2c-.64 0-1.2-.647-1.2-1.387v-6.285C7 10.588 7.56 10 8.2 10h2.04c.238 0 .398-.43.478-.613l.4-1.017c.08-.185.32-.37.48-.37h4.877c.24 0 .4.185.48.37l.4 1.017c.08.184.32.613.48.613zM14 11c-1.696 0-3 1.304-3 3s1.304 3 3 3 3-1.304 3-3-1.304-3-3-3zm0 1.5c.848 0 1.5.652 1.5 1.5s-.652 1.5-1.5 1.5-1.5-.652-1.5-1.5.652-1.5 1.5-1.5z"/></g><path d="M14 336c7.732 0 14-6.268 14-14s-6.268-14-14-14-14 6.268-14 14 6.268 14 14 14z"/><path fill="#FFF" d="M7 320.5c0-.3.4-.5 1-.5h5v2H7v-1.5zm1 6.5v-4h5v5H9c-.6 0-1-.4-1-1zm7 1v-5h5v4c0 .6-.4 1-1 1h-4zm5-8c.6 0 1 .2 1 .5v1.5h-6v-2h5zm-6 0c-3.333-.333-5-1.333-5-3 0-1.105 1-2 2-2 1.667 0 2.667 1.667 3 5zm-1.5-1.5c-.133-1.333-.533-2-1.2-2-.4 0-.8.358-.8.8 0 .667.667 1.067 2 1.2zM14 320c.333-3.333 1.333-5 3-5 1 0 2 .895 2 2 0 1.667-1.667 2.667-5 3zm1.5-1.5c1.333-.133 2-.533 2-1.2 0-.442-.4-.8-.8-.8-.667 0-1.067.667-1.2 2z"/><g transform="translate(0 336)"><rect width="28" height="28" rx="14"/><path fill="#FFF" d="M19 8h.502C20.33 8 21 8.663 21 9.49v10.02c0 .822-.675 1.49-1.498 1.49H8.498C7.67 21 7 20.337 7 19.51V9.49C7 8.67 7.675 8 8.498 8H9v1.99c0 .567.447 1.01 1 1.01h1c.557 0 1-.452 1-1.01V8.01 8h4v1.99c0 .567.447 1.01 1 1.01h1c.557 0 1-.452 1-1.01V8.01 8zM9 13v6h10v-6H9zm1-6h1v3h-1V7zm7 0h1v3h-1V7z"/></g><g transform="translate(0 420)"><circle cx="14" cy="14" r="14"/><path fill="#FFF" d="M9 8c6.075 0 11 4.925 11 11h-2c0-4.97-4.03-9-9-9V8zm0 4c3.866 0 7 3.134 7 7h-2c0-2.76-2.24-5-5-5v-2zm0 4c1.657 0 3 1.343 3 3H9v-3z"/></g><g transform="translate(0 364)"><rect width="28" height="28" rx="14"/><path fill="#FFF" d="M10 18.267c0 .6.2.733 1.2.733h5.667C17.8 19 18 18.8 18 18.267 18 17.133 17.6 15 14 15s-4 2.133-4 3.267z"/><circle cx="14" cy="11" r="2" fill="#FFF"/></g><path d="M14 420c7.732 0 14-6.268 14-14s-6.268-14-14-14-14 6.268-14 14 6.268 14 14 14z"/><path fill="#FFF" d="M7 404.5c0-.3.4-.5 1-.5h5v2H7v-1.5zm1 6.5v-4h5v5H9c-.6 0-1-.4-1-1zm7 1v-5h5v4c0 .6-.4 1-1 1h-4zm5-8c.6 0 1 .2 1 .5v1.5h-6v-2h5zm-6 0c-3.333-.333-5-1.333-5-3 0-1.105 1-2 2-2 1.667 0 2.667 1.667 3 5zm-1.5-1.5c-.133-1.333-.533-2-1.2-2-.4 0-.8.358-.8.8 0 .667.667 1.067 2 1.2zM14 404c.333-3.333 1.333-5 3-5 1 0 2 .895 2 2 0 1.667-1.667 2.667-5 3zm1.5-1.5c1.333-.133 2-.533 2-1.2 0-.442-.4-.8-.8-.8-.667 0-1.067.667-1.2 2z"/><g transform="translate(0 448)"><rect width="28" height="28" rx="14"/><path fill="#FFF" d="M21.77 14.686c.1.367.996 4.127-1.593 4.31-1.095.092-2.29-1.467-3.186-2.293-.796-.917-1.692-1.375-3.086-1.375-1.393 0-2.19.458-3.086 1.375-.896.826-2.09 2.385-3.087 2.293-2.488-.092-1.592-3.943-1.492-4.31C6.636 12.668 8.03 9 10.818 9c0 0 .896.092 1.593.46 1.196.457 1.793.457 3.087 0C16.294 9.09 17.09 9 17.09 9c2.888 0 4.182 3.577 4.68 5.686zM16 12c-.552 0-1 .448-1 1s.448 1 1 1h2c.552 0 1-.448 1-1s-.448-1-1-1h-2zm-6 0c-.552 0-1 .448-1 1s.448 1 1 1 1-.448 1-1-.448-1-1-1z"/></g><g transform="translate(0 476)"><circle cx="14" cy="14" r="14"/><path fill="#FFF" d="M15.5 10h-6c-.276 0-.5.224-.5.5v7c0 .276.224.5.5.5h6c.276 0 .5-.224.5-.5v-2l4 2.5v-8l-4 2.5v-2c0-.276-.224-.5-.5-.5z"/></g><g transform="translate(0 504)"><circle cx="14" cy="14" r="14"/><path fill="#FFF" d="M14 15v1h2v2h-2v2h-2v-2h-2v-2h2v-1h-2v-2h2V8h2c3.5 0 5 1 5 3.5S17.5 15 14 15zm0-2c1.8 0 3-.3 3-1.5S15.8 10 14 10v3z"/></g><g transform="translate(0 532)"><rect width="28" height="28" rx="14"/><path fill="#FFF" d="M22 13.134c0 .94-.15 1.8-.45 2.58-.3.778-.726 1.39-1.274 1.833-.55.444-1.186.666-1.91.666-.484 0-.912-.116-1.285-.348-.37-.23-.64-.536-.802-.915h-.157c-.704.842-1.602 1.263-2.693 1.263-1.156 0-2.068-.348-2.734-1.042-.666-.694-1-1.645-1-2.852 0-1.377.438-2.486 1.314-3.327.875-.84 2.018-1.262 3.43-1.262.56 0 1.18.054 1.856.162.676.108 1.233.236 1.67.386l-.225 4.786c0 .907.248 1.36.745 1.36.418 0 .75-.305 1-.915.247-.61.37-1.408.37-2.393 0-1.05-.218-1.978-.655-2.784-.438-.805-1.053-1.42-1.847-1.844-.793-.424-1.7-.636-2.718-.636-1.32 0-2.466.27-3.44.812-.972.54-1.72 1.323-2.238 2.344-.52 1.02-.78 2.2-.78 3.537 0 1.8.483 3.182 1.446 4.144.964.963 2.36 1.444 4.19 1.444.69 0 1.452-.076 2.282-.23.83-.152 1.646-.376 2.45-.67v1.88c-1.4.593-2.95.89-4.655.89-2.482 0-4.417-.652-5.805-1.957C6.694 18.738 6 16.923 6 14.603c0-1.613.354-3.076 1.063-4.39.71-1.315 1.718-2.346 3.028-3.093C11.4 6.373 12.91 6 14.613 6c1.437 0 2.72.294 3.85.88 1.13.588 2.003 1.423 2.617 2.506.613 1.083.92 2.332.92 3.748zm-10.033 1.223c0 1.377.562 2.065 1.685 2.065.588 0 1.035-.207 1.342-.62.307-.416.494-1.09.56-2.022l.126-2.163c-.333-.072-.708-.108-1.126-.108-.817 0-1.452.254-1.906.763-.454.51-.68 1.203-.68 2.084z"/></g><g transform="translate(0 560)"><circle cx="14" cy="14" r="14"/><path fill="#FFF" d="M14 22c-4.418 0-8-3.582-8-8s3.582-8 8-8 8 3.582 8 8-3.582 8-8 8zm1-11c0-.552-.448-1-1-1s-1 .448-1 1v3.5c0 .304.138.59.375.78l2.5 2c.432.346 1.06.276 1.406-.155.346-.432.276-1.06-.155-1.406L15 14.02V11z"/></g><g transform="translate(0 588)"><rect width="28" height="28" rx="14"/><path fill="#FFF" d="M13.974 19c-.485 0-.793-.038-.847.058-.617 1.103-1.525 1.866-3.746 1.94-.047.002-.11.004-.188.005-.02 0-.04-.006-.057-.017-.046-.03-.058-.094-.027-.14.03-.042.053-.078.07-.107.805-1.234 1.242-2.27.85-2.71C8.2 17.038 7 15.38 7 13.5 7 10.462 10.134 8 14 8s7 2.462 7 5.5-3.134 5.5-7 5.5h-.026zm-3.845-.917l-.1-.053z"/></g></g></svg>